<?xml version="1.0" encoding="UTF-8"?>
<svg width="800" height="500" viewBox="0 0 800 500" xmlns="http://www.w3.org/2000/svg">
    <rect width="800" height="500" rx="12" fill="#0f172a"/>
    <rect x="1" y="1" width="798" height="498" rx="11" fill="none" stroke="#1e293b" stroke-width="2"/>
    
    <text x="400" y="36" fill="#f8fafc" font-family="Inter, system-ui, sans-serif" font-size="18" font-weight="700" text-anchor="middle">Concurrent Requests vs CPU Utilization (%)</text>
    <text x="25" y="250" fill="#94a3b8" font-family="Inter, system-ui, sans-serif" font-size="13" font-weight="600" text-anchor="middle" transform="rotate(-90, 25, 250)">CPU Utilization (%)</text>
    <text x="400" y="470" fill="#94a3b8" font-family="Inter, system-ui, sans-serif" font-size="13" font-weight="600" text-anchor="middle">Concurrent Requests (Workload Level)</text>

    <!-- Grid Lines -->
    <line x1="80" y1="420" x2="760" y2="420" stroke="#334155" stroke-dasharray="4,4" opacity="0.6"/>
    <text x="68" y="424" fill="#94a3b8" font-family="Inter, system-ui, sans-serif" font-size="12" text-anchor="end">0</text>

    <line x1="80" y1="350" x2="760" y2="350" stroke="#334155" stroke-dasharray="4,4" opacity="0.6"/>
    <text x="68" y="354" fill="#94a3b8" font-family="Inter, system-ui, sans-serif" font-size="12" text-anchor="end">14</text>

    <line x1="80" y1="280" x2="760" y2="280" stroke="#334155" stroke-dasharray="4,4" opacity="0.6"/>
    <text x="68" y="284" fill="#94a3b8" font-family="Inter, system-ui, sans-serif" font-size="12" text-anchor="end">28</text>

    <line x1="80" y1="210" x2="760" y2="210" stroke="#334155" stroke-dasharray="4,4" opacity="0.6"/>
    <text x="68" y="214" fill="#94a3b8" font-family="Inter, system-ui, sans-serif" font-size="12" text-anchor="end">42</text>

    <line x1="80" y1="140" x2="760" y2="140" stroke="#334155" stroke-dasharray="4,4" opacity="0.6"/>
    <text x="68" y="144" fill="#94a3b8" font-family="Inter, system-ui, sans-serif" font-size="12" text-anchor="end">56</text>

    <line x1="80" y1="70" x2="760" y2="70" stroke="#334155" stroke-dasharray="4,4" opacity="0.6"/>
    <text x="68" y="74" fill="#94a3b8" font-family="Inter, system-ui, sans-serif" font-size="12" text-anchor="end">70</text>

    <!-- X Labels -->
    <text x="80" y="445" fill="#cbd5e1" font-family="Inter, system-ui, sans-serif" font-size="13" font-weight="600" text-anchor="middle">W1 (1)</text>
    <text x="250" y="445" fill="#cbd5e1" font-family="Inter, system-ui, sans-serif" font-size="13" font-weight="600" text-anchor="middle">W2 (2)</text>
    <text x="420" y="445" fill="#cbd5e1" font-family="Inter, system-ui, sans-serif" font-size="13" font-weight="600" text-anchor="middle">W3 (4)</text>
    <text x="590" y="445" fill="#cbd5e1" font-family="Inter, system-ui, sans-serif" font-size="13" font-weight="600" text-anchor="middle">W4 (8)</text>
    <text x="760" y="445" fill="#cbd5e1" font-family="Inter, system-ui, sans-serif" font-size="13" font-weight="600" text-anchor="middle">W5 (16)</text>

    <line x1="80" y1="420" x2="760" y2="420" stroke="#64748b" stroke-width="2"/>

    <!-- enrollment-service line (#818cf8) -->
    <path d="M 80 397.5 C 165 397.5, 165 376.5, 250 376.5 C 335 376.5, 335 333, 420 333 C 505 333, 505 249, 590 249 C 675 249, 675 101, 760 101" fill="none" stroke="#818cf8" stroke-width="3.5" stroke-linecap="round"/>
    <circle cx="80" cy="397.5" r="5" fill="#818cf8"/>
    <circle cx="250" cy="376.5" r="5" fill="#818cf8"/>
    <circle cx="420" cy="333" r="5" fill="#818cf8"/>
    <circle cx="590" cy="249" r="5" fill="#818cf8"/>
    <circle cx="760" cy="101" r="5" fill="#818cf8"/>

    <!-- student-service line (#34d399) -->
    <path d="M 80 409.5 C 165 409.5, 165 398.5, 250 398.5 C 335 398.5, 335 379, 420 379 C 505 379, 505 342, 590 342 C 675 342, 675 273, 760 273" fill="none" stroke="#34d399" stroke-width="3.5" stroke-linecap="round"/>
    <circle cx="80" cy="409.5" r="5" fill="#34d399"/>
    <circle cx="250" cy="398.5" r="5" fill="#34d399"/>
    <circle cx="420" cy="379" r="5" fill="#34d399"/>
    <circle cx="590" cy="342" r="5" fill="#34d399"/>
    <circle cx="760" cy="273" r="5" fill="#34d399"/>

    <!-- course-service line (#f0abfc) -->
    <path d="M 80 411 C 165 411, 165 400.5, 250 400.5 C 335 400.5, 335 381, 420 381 C 505 381, 505 346, 590 346 C 675 346, 675 280.5, 760 280.5" fill="none" stroke="#f0abfc" stroke-width="3.5" stroke-linecap="round"/>
    <circle cx="80" cy="411" r="5" fill="#f0abfc"/>
    <circle cx="250" cy="400.5" r="5" fill="#f0abfc"/>
    <circle cx="420" cy="381" r="5" fill="#f0abfc"/>
    <circle cx="590" cy="346" r="5" fill="#f0abfc"/>
    <circle cx="760" cy="280.5" r="5" fill="#f0abfc"/>

    <!-- Legends -->
    <rect x="80" y="475" width="16" height="12" rx="3" fill="#818cf8"/>
    <text x="102" y="485" fill="#cbd5e1" font-family="Inter, system-ui, sans-serif" font-size="12" font-weight="600">enrollment-service (Max 63.8%)</text>

    <rect x="320" y="475" width="16" height="12" rx="3" fill="#34d399"/>
    <text x="342" y="485" fill="#cbd5e1" font-family="Inter, system-ui, sans-serif" font-size="12" font-weight="600">student-service</text>

    <rect x="520" y="475" width="16" height="12" rx="3" fill="#f0abfc"/>
    <text x="542" y="485" fill="#cbd5e1" font-family="Inter, system-ui, sans-serif" font-size="12" font-weight="600">course-service</text>
</svg>
